{
    "asset" : {
        "copyright" : "emerald.dev",
        "generator" : "Khronos glTF Blender I/O v3.2.43",
        "version" : "2.0"
    },
    "scene" : 0,
    "scenes" : [
        {
            "name" : "Scene",
            "nodes" : [
                0
            ]
        }
    ],
    "nodes" : [
        {
            "mesh" : 0,
            "name" : "wifi",
            "rotation" : [
                0.7071068286895752,
                0,
                0,
                0.7071067094802856
            ],
            "translation" : [
                0,
                -12.791168212890625,
                -0.7883228659629822
            ]
        }
    ],
    "materials" : [
        {
            "doubleSided" : true,
            "name" : "lambert1",
            "pbrMetallicRoughness" : {
                "baseColorFactor" : [
                    0.6866853833198547,
                    0.038204170763492584,
                    0.06662597507238388,
                    1
                ],
                "metallicFactor" : 0,
                "roughnessFactor" : 0.5527864098548889
            }
        }
    ],
    "meshes" : [
        {
            "name" : "Mesh",
            "primitives" : [
                {
                    "attributes" : {
                        "POSITION" : 0,
                        "NORMAL" : 1,
                        "TEXCOORD_0" : 2
                    },
                    "indices" : 3,
                    "material" : 0
                }
            ]
        }
    ],
    "accessors" : [
        {
            "bufferView" : 0,
            "componentType" : 5126,
            "count" : 1012,
            "max" : [
                1.46628999710083,
                0.9707292318344116,
                -11.709650993347168
            ],
            "min" : [
                -1.4789600372314453,
                0.6059165000915527,
                -13.872686386108398
            ],
            "type" : "VEC3"
        },
        {
            "bufferView" : 1,
            "componentType" : 5126,
            "count" : 1012,
            "type" : "VEC3"
        },
        {
            "bufferView" : 2,
            "componentType" : 5126,
            "count" : 1012,
            "type" : "VEC2"
        },
        {
            "bufferView" : 3,
            "componentType" : 5123,
            "count" : 4200,
            "type" : "SCALAR"
        }
    ],
    "bufferViews" : [
        {
            "buffer" : 0,
            "byteLength" : 12144,
            "byteOffset" : 0
        },
        {
            "buffer" : 0,
            "byteLength" : 12144,
            "byteOffset" : 12144
        },
        {
            "buffer" : 0,
            "byteLength" : 8096,
            "byteOffset" : 24288
        },
        {
            "buffer" : 0,
            "byteLength" : 8400,
            "byteOffset" : 32384
        }
    ],
    "buffers" : [
        {
            "byteLength" : 40784,
            "uri" : "data:application/octet-stream;base64,"
        }
    ]
}
